PathFileType	4	(X/Y/Z)	D:\Share\Shared_Data\Ergonomics\Sit To Stand Pertubation\S0\Free STS.trc
DataRate	CameraRate	NumFrames	NumMarkers	Units	OrigDataRate	OrigDataStartFrame	OrigNumFrames	
100	100	12	18	m	100	2225	231
Frame#	Time	R_Toe			R_ASIS			R_Pelvis			V_Sacral			L_Pelvis			L_ASIS			Clavical			R_Acromium			L_Acromium			Sternum			Torso			R_Thigh_Med			R_Thigh_Lat			R_Thigh			R_Shank_Med			R_Shank_Lat			R_Shank			R_Heel			
		X1	Y1	Z1	X2	Y2	Z2	X3	Y3	Z3	X4	Y4	Z4	X5	Y5	Z5	X6	Y6	Z6	X7	Y7	Z7	X8	Y8	Z8	X9	Y9	Z9	X10	Y10	Z10	X11	Y11	Z11	X12	Y12	Z12	X13	Y13	Z13	X14	Y14	Z14	X15	Y15	Z15	X16	Y16	Z16	X17	Y17	Z17	X18	Y18	Z18	

2225	8.67	0.37696487	0.049198223	0.14375287	-0.035180305	0.73975269	0.15830688	-0.1639537	0.72931464	0.20560579	-0.2839996	0.69873138	-0.02146014	-0.14704857	0.72049084	-0.20465317	-0.024162663	0.73509271	-0.15919627	0.038965591	1.1087582	-0.0091198769	-0.03366283	1.1778994	0.13503987	-0.047940781	1.1797577	-0.15773064	0.057150726	1.0123171	-0.026568441	0.035893631	1.0609464	-0.13187482	0.30276703	0.48964655	0.078095261	0.28390387	0.50942123	0.21110851	0.21313976	0.64180078	0.1261839	0.25316486	0.10441978	0.10841115	0.19552231	0.091672867	0.19611609	0.24843999	0.31164471	0.22006857	0.1549662	0.048436722	0.14936415
2226	8.68	0.37690955	0.049242893	0.14380898	-0.034621834	0.73917352	0.15832843	-0.16318057	0.7297085	0.20559482	-0.28339767	0.69957355	-0.021501472	-0.14635147	0.72094305	-0.20470462	-0.02332143	0.73483191	-0.15925459	0.04400811	1.1071531	-0.0092127447	-0.027985529	1.1770361	0.13485896	-0.042155716	1.1789824	-0.15778447	0.061151054	1.0105127	-0.026619253	0.040501804	1.0593448	-0.13189539	0.30268875	0.48959573	0.078265015	0.28382382	0.50935941	0.21127362	0.21320964	0.64171814	0.12629157	0.25312886	0.10439513	0.10841337	0.19546002	0.091609024	0.19608894	0.24831459	0.31158856	0.22015622	0.15492725	0.048359615	0.1493235
2227	8.69	0.37684705	0.049288906	0.14386877	-0.034131588	0.73846655	0.15838434	-0.16234138	0.73013098	0.20558563	-0.28274539	0.70048755	-0.021541937	-0.14559532	0.72142633	-0.20476088	-0.022413094	0.73456427	-0.15931114	0.04920816	1.1054716	-0.0092964535	-0.022123169	1.1761101	0.13468333	-0.036171967	1.1781555	-0.15782579	0.065291939	1.0086439	-0.026664532	0.045269371	1.057684	-0.13190807	0.30261575	0.48953537	0.078448677	0.28374951	0.5092886	0.21145093	0.21329347	0.64163116	0.12640926	0.25308853	0.10436443	0.10841246	0.1953969	0.091537926	0.19605772	0.24818628	0.31152402	0.22024081	0.15488419	0.048271938	0.14927669
2228	8.7	0.37677676	0.04933588	0.14393138	-0.033683716	0.73765796	0.15847057	-0.16143251	0.7305882	0.20557721	-0.28203806	0.70147876	-0.021581255	-0.14477446	0.72194427	-0.20482022	-0.021431488	0.73429114	-0.15936613	0.054557636	1.1037136	-0.0093725471	-0.016074287	1.1751226	0.1345134	-0.029990911	1.177277	-0.15785469	0.069574883	1.0067129	-0.026705544	0.050194969	1.0559641	-0.13191312	0.30254929	0.48946579	0.078643387	0.28368057	0.50920743	0.21163858	0.21339459	0.64154181	0.12653828	0.25304282	0.10432671	0.10840632	0.19533246	0.091458961	0.1960213	0.24805594	0.31145178	0.22032112	0.15483624	0.048172287	0.1492231
2229	8.71	0.37669974	0.049383133	0.14399571	-0.033179211	0.73684039	0.15857153	-0.1604501	0.73108606	0.20556851	-0.28127094	0.70255219	-0.021618925	-0.14388174	0.72249988	-0.20487929	-0.020369841	0.73401459	-0.15941988	0.060048912	1.1018796	-0.0094433126	-0.0098354778	1.174075	0.13434921	-0.023613766	1.1763451	-0.15787119	0.073999359	1.0047215	-0.026742926	0.055277275	1.054186	-0.13191144	0.30249048	0.489388	0.078845245	0.28361768	0.50911462	0.21183376	0.21351723	0.64145172	0.12668003	0.25299222	0.10428114	0.10839262	0.1952664	0.091372093	0.19597926	0.24792549	0.31137277	0.22039572	0.1547829	0.048060062	0.14916209
2230	8.72	0.37661853	0.049429771	0.14406078	-0.032499535	0.73612256	0.15866997	-0.15939003	0.73163062	0.20555864	-0.2804389	0.70371228	-0.021654577	-0.14290895	0.72309552	-0.20493349	-0.019221994	0.73373627	-0.1594725	0.065677101	1.0999716	-0.0095111485	-0.0034026339	1.1729686	0.13419058	-0.017041508	1.1753578	-0.15787477	0.078562965	1.0026713	-0.026776827	0.060514915	1.0523501	-0.13190468	0.30244046	0.48930328	0.079049835	0.28356332	0.50900931	0.21203307	0.21366605	0.64136273	0.12683566	0.25293907	0.10422744	0.10836887	0.19519855	0.091277931	0.19593167	0.24779797	0.31128766	0.22046307	0.154724	0.047935741	0.14909296
2231	8.73	0.37653632	0.049474632	0.14412526	-0.031567663	0.73557568	0.15875603	-0.15824789	0.73222754	0.20554698	-0.27953638	0.70496295	-0.021688391	-0.14184819	0.72373297	-0.20497873	-0.017983938	0.73345734	-0.15952287	0.071443237	1.0979938	-0.0095778103	0.0032273605	1.1718035	0.13403711	-0.010275156	1.1743118	-0.15786464	0.083262695	1.0005627	-0.026807268	0.065906189	1.0504576	-0.13189523	0.30240054	0.4892132	0.079253105	0.28352078	0.50889087	0.21223305	0.21384558	0.64127686	0.12700546	0.25288707	0.10416594	0.10833279	0.19512872	0.09117775	0.19587881	0.24767717	0.31119644	0.22052182	0.15465974	0.047800682	0.14901492
2232	8.74	0.37645593	0.04951643	0.14418729	-0.030375517	0.73521167	0.15882954	-0.15701909	0.73288263	0.20553308	-0.27855753	0.70630756	-0.021721165	-0.14069292	0.72441217	-0.20501315	-0.016654539	0.73317725	-0.15956816	0.077356247	1.0959514	-0.0096437759	0.010055886	1.170578	0.13388821	-0.0033161132	1.1732026	-0.15784016	0.088096809	0.99839612	-0.026834219	0.071448875	1.0485095	-0.13188643	0.30237228	0.48911911	0.079452156	0.28349472	0.50875931	0.21243118	0.21405988	0.64119604	0.12718861	0.25284052	0.10409795	0.10828285	0.19505664	0.091073318	0.19582115	0.24756743	0.31109863	0.22057124	0.15459082	0.04765699	0.1489276
2233	8.75	0.37637976	0.049554176	0.14424472	-0.028969536	0.73499573	0.15889708	-0.15569922	0.73360059	0.20551704	-0.27749667	0.70774908	-0.02175415	-0.13943819	0.72513257	-0.20503755	-0.015235352	0.73289374	-0.15960397	0.083430527	1.0938474	-0.0097081709	0.017082947	1.1692891	0.13374342	0.0038337884	1.1720266	-0.15780141	0.093066246	0.99617169	-0.026857319	0.077140465	1.0465061	-0.13188214	0.30235791	0.48902185	0.079645691	0.28349042	0.50861545	0.21262621	0.21431288	0.64112274	0.12738361	0.25280399	0.10402602	0.10821919	0.19498222	0.090966461	0.19575914	0.24747287	0.3109938	0.22061163	0.15451828	0.047507637	0.14883176
2234	8.76	0.37630942	0.049587372	0.14429564	-0.027412544	0.73487701	0.1589679	-0.1542838	0.73438544	0.20549954	-0.27634827	0.70929083	-0.021788816	-0.13807977	0.72589264	-0.20505396	-0.013730066	0.73260309	-0.15962538	0.08968132	1.0916793	-0.0097692661	0.024307583	1.1679335	0.13360243	0.011172715	1.1707798	-0.15774937	0.098173599	0.9938891	-0.026875708	0.082979111	1.0444464	-0.13188594	0.30236069	0.48892151	0.079834061	0.28351462	0.50846112	0.21281853	0.21460883	0.64106018	0.12758869	0.25278088	0.10395364	0.10814413	0.19490552	0.09085849	0.19569363	0.24739709	0.31088162	0.22064442	0.15444325	0.047356102	0.1487291
2235	8.77	0.37624591	0.04961599	0.14433925	-0.025755276	0.73481183	0.1590507	-0.15276826	0.73523846	0.20548158	-0.27510706	0.71093555	-0.021826437	-0.13661354	0.72669061	-0.20506459	-0.012143126	0.73230035	-0.1596279	0.096120659	1.0894434	-0.009824954	0.031727764	1.1665072	0.13346519	0.018698967	1.1694586	-0.15768552	0.10342122	0.9915462	-0.026888134	0.088964371	1.0423281	-0.13189941	0.30238461	0.48881769	0.080018768	0.28357471	0.5082999	0.21301015	0.21495224	0.64101141	0.12780202	0.25277159	0.103883	0.10806151	0.194827	0.090750267	0.1956257	0.24734296	0.31076196	0.22067236	0.154367	0.04720541	0.14862202
2236	8.78	0.37618936	0.049640652	0.14437643	-0.024028009	0.73477203	0.1591516	-0.15114816	0.73615918	0.20546402	-0.27376746	0.71268481	-0.021867506	-0.13503529	0.72752454	-0.20507175	-0.010477643	0.73198108	-0.15960918	0.10275414	1.0871333	-0.0098730402	0.039340096	1.1650084	0.13333157	0.026410568	1.1680597	-0.15761118	0.10881119	0.98914069	-0.02689299	0.095097321	1.0401473	-0.13192059	0.30243518	0.48870917	0.080201973	0.28367847	0.50813574	0.21320395	0.21534721	0.64097968	0.12802153	0.25277254	0.10381346	0.10797508	0.19474771	0.090642456	0.19555688	0.24731281	0.31063516	0.22069881	0.15429112	0.047057461	0.14851265
